<?xml version="1.0" encoding="UTF-8" standalone="no"?>
<!-- Created with Inkscape (http://www.inkscape.org/) -->

<svg
   xmlns:dc="http://purl.org/dc/elements/1.1/"
   xmlns:cc="http://creativecommons.org/ns#"
   xmlns:rdf="http://www.w3.org/1999/02/22-rdf-syntax-ns#"
   xmlns:svg="http://www.w3.org/2000/svg"
   xmlns="http://www.w3.org/2000/svg"
   xmlns:sodipodi="http://sodipodi.sourceforge.net/DTD/sodipodi-0.dtd"
   xmlns:inkscape="http://www.inkscape.org/namespaces/inkscape"
   width="200"
   height="200"
   id="svg2"
   version="1.1"
   inkscape:version="0.48.2 r9819"
   sodipodi:docname="sterne.svg">
  <defs
     id="defs4" />
  <sodipodi:namedview
     id="base"
     pagecolor="#ffffff"
     bordercolor="#666666"
     borderopacity="1.0"
     inkscape:pageopacity="0.0"
     inkscape:pageshadow="2"
     inkscape:zoom="5.6"
     inkscape:cx="60.655184"
     inkscape:cy="89.436735"
     inkscape:document-units="px"
     inkscape:current-layer="layer1"
     showgrid="false"
     inkscape:window-width="1920"
     inkscape:window-height="1137"
     inkscape:window-x="-8"
     inkscape:window-y="-8"
     inkscape:window-maximized="1" />
  <metadata
     id="metadata7">
    <rdf:RDF>
      <cc:Work
         rdf:about="">
        <dc:format>image/svg+xml</dc:format>
        <dc:type
           rdf:resource="http://purl.org/dc/dcmitype/StillImage" />
        <dc:title></dc:title>
      </cc:Work>
    </rdf:RDF>
  </metadata>
  <g
     inkscape:label="Ebene 1"
     inkscape:groupmode="layer"
     id="layer1"
     transform="translate(0,-852.36218)"
     style="display:inline">
    <rect
       style="opacity:0.96282528000000001;fill:#d5e6d5;fill-opacity:1;stroke:none;stroke-width:0;stroke-miterlimit:4;stroke-dasharray:none;stroke-dashoffset:0"
       id="rect3214"
       width="201.78572"
       height="201.96428"
       x="-0.89285713"
       y="-0.35714328"
       transform="translate(0,852.36218)" />
    <path
       sodipodi:type="star"
       style="opacity:0.96282528000000001;fill:#4d7f4d;fill-opacity:1;stroke:none;stroke-width:1.51100004000000010;stroke-miterlimit:4;stroke-dasharray:1.51099999999999990, 4.53300000000000040;stroke-dashoffset:0"
       id="path2985"
       sodipodi:sides="10"
       sodipodi:cx="128.57143"
       sodipodi:cy="146.6479"
       sodipodi:r1="93.284729"
       sodipodi:r2="46.642365"
       sodipodi:arg1="0.69865982"
       sodipodi:arg2="1.0128191"
       inkscape:flatsided="false"
       inkscape:rounded="0"
       inkscape:randomized="0"
       d="m 200,206.6479 -46.73278,-20.43198 -2.17598,50.95766 -25.79799,-43.99866 -31.712571,39.94661 4.990747,-50.75934 -49.136032,13.6773 33.873192,-38.13168 -47.791202,-17.81626 49.817229,-10.93902 -28.191758,-42.504626 46.732775,20.431986 2.17598,-50.957666 25.798,43.998656 31.71256,-39.946604 -4.99074,50.759344 49.13603,-13.677305 -33.87319,38.131685 47.7912,17.81626 -49.81723,10.93902 z"
       transform="matrix(0.24384277,0,0,0.24384277,0.57116429,861.58108)" />
    <path
       sodipodi:type="star"
       style="opacity:0.96282528000000001;fill:#4d7f4d;fill-opacity:1;stroke:none;stroke-width:1.51100004000000010;stroke-miterlimit:4;stroke-dasharray:1.51099999999999990, 4.53300000000000040;stroke-dashoffset:0"
       id="path2987"
       sodipodi:sides="10"
       sodipodi:cx="308.57144"
       sodipodi:cy="229.50504"
       sodipodi:r1="73.178566"
       sodipodi:r2="36.589279"
       sodipodi:arg1="0.67474094"
       sodipodi:arg2="0.98890021"
       inkscape:flatsided="false"
       inkscape:rounded="0"
       inkscape:randomized="0"
       d="m 365.7143,275.21932 -37.03306,-15.14679 -0.75044,40.00387 -21.05731,-34.0215 -24.1208,31.92272 2.96161,-39.90116 -38.27784,11.64817 25.8493,-30.53992 -37.81405,-13.07558 38.86344,-9.51347 -22.90657,-32.80491 37.03307,15.1468 0.75043,-40.00388 21.05731,34.0215 24.12081,-31.92272 -2.96162,39.90116 38.27785,-11.64817 -25.84931,30.53992 37.81405,13.07558 -38.86344,9.51347 z"
       transform="matrix(0.24384277,0,0,0.24384277,0.57116429,861.58108)" />
    <path
       sodipodi:type="star"
       style="opacity:0.96282528000000001;fill:#4d7f4d;fill-opacity:1;stroke:none;stroke-width:1.51100004000000010;stroke-miterlimit:4;stroke-dasharray:1.51099999999999990, 4.53300000000000040;stroke-dashoffset:0"
       id="path2989"
       sodipodi:sides="10"
       sodipodi:cx="131.42857"
       sodipodi:cy="378.07648"
       sodipodi:r1="79.024666"
       sodipodi:r2="39.512333"
       sodipodi:arg1="0.86217005"
       sodipodi:arg2="1.1763293"
       inkscape:flatsided="false"
       inkscape:rounded="0"
       inkscape:randomized="0"
       d="m 182.85714,438.07648 -36.24334,-23.52216 -8.84575,42.29213 -15.49551,-40.33312 -32.015054,29.01564 11.171084,-41.73821 -42.955689,4.65618 33.570705,-27.20073 -37.488715,-21.4818 43.147454,-2.27348 -17.702322,-39.41445 36.243337,23.52215 8.84576,-42.29213 15.4955,40.33313 32.01506,-29.01565 -11.17109,41.73821 42.9557,-4.65617 -33.57071,27.20072 37.48872,21.4818 -43.14746,2.27348 z"
       transform="matrix(0.24384277,0,0,0.24384277,0.57116429,861.58108)" />
    <path
       sodipodi:type="star"
       style="opacity:0.96282528000000001;fill:#4d7f4d;fill-opacity:1;stroke:none;stroke-width:1.51100004000000010;stroke-miterlimit:4;stroke-dasharray:1.51099999999999990, 4.53300000000000040;stroke-dashoffset:0"
       id="path2991"
       sodipodi:sides="10"
       sodipodi:cx="314.28571"
       sodipodi:cy="366.64789"
       sodipodi:r1="83.053955"
       sodipodi:r2="41.526974"
       sodipodi:arg1="0.7123576"
       sodipodi:arg2="1.0265169"
       inkscape:flatsided="false"
       inkscape:rounded="0"
       inkscape:randomized="0"
       d="m 377.14285,420.9336 -41.3544,-18.75936 -2.55859,45.33822 -22.42994,-39.48416 -28.71907,35.17549 5.062,-45.12733 -43.90985,11.57692 30.62042,-33.53342 -42.32856,-16.44364 44.4829,-9.13086 -24.5792,-38.18329 41.3544,18.75937 2.55859,-45.33822 22.42994,39.48415 28.71907,-35.17549 -5.062,45.12734 43.90985,-11.57692 -30.62042,33.53341 42.32856,16.44364 -44.4829,9.13087 z"
       transform="matrix(0.24384277,0,0,0.24384277,0.57116429,861.58108)" />
    <path
       sodipodi:type="star"
       style="opacity:0.96282528000000001;fill:#4d7f4d;fill-opacity:1;stroke:none;stroke-width:1.51100004000000010;stroke-miterlimit:4;stroke-dasharray:1.51099999999999990, 4.53300000000000040;stroke-dashoffset:0"
       id="path2993"
       sodipodi:sides="10"
       sodipodi:cx="497.14285"
       sodipodi:cy="138.07648"
       sodipodi:r1="78.45446"
       sodipodi:r2="39.227226"
       sodipodi:arg1="0.99289439"
       sodipodi:arg2="1.3070537"
       inkscape:flatsided="false"
       inkscape:rounded="0"
       inkscape:randomized="0"
       d="m 540,203.79076 -32.63078,-27.84349 -14.1801,40.48398 -10.03286,-41.70575 -35.26782,24.41737 16.39727,-39.63782 -42.88444,-0.97584 36.5642,-22.4296 -34.12066,-25.99631 42.76485,3.34597 -12.32395,-41.08708 32.63078,27.8435 14.18009,-40.483985 10.03286,41.705755 35.26783,-24.41738 -16.39728,39.63783 42.88445,0.97583 -36.56421,22.4296 34.12067,25.99632 -42.76485,-3.34598 z"
       transform="matrix(0.24384277,0,0,0.24384277,0.57116429,861.58108)" />
    <path
       sodipodi:type="star"
       style="opacity:0.96282528000000001;fill:#4d7f4d;fill-opacity:1;stroke:none;stroke-width:1.51100004000000010;stroke-miterlimit:4;stroke-dasharray:1.51099999999999990, 4.53300000000000040;stroke-dashoffset:0"
       id="path2995"
       sodipodi:sides="10"
       sodipodi:cx="494.28571"
       sodipodi:cy="295.21933"
       sodipodi:r1="84.418777"
       sodipodi:r2="42.209389"
       sodipodi:arg1="0.41822433"
       sodipodi:arg2="0.73238359"
       inkscape:flatsided="false"
       inkscape:rounded="0"
       inkscape:randomized="0"
       d="m 571.42856,329.50504 -45.75668,-6.06266 10.87107,44.85811 -33.45439,-31.7999 -17.57205,42.68082 -8.37366,-45.39065 -39.30325,24.20092 19.90553,-41.64373 -46.02194,-3.52291 40.58147,-21.99031 -35.16181,-29.90111 45.75668,6.06266 -10.87107,-44.85811 33.45439,31.7999 17.57205,-42.68082 8.37366,45.39065 39.30325,-24.20092 -19.90553,41.64373 46.02194,3.52291 -40.58147,21.99031 z"
       transform="matrix(0.24384277,0,0,0.24384277,0.57116429,861.58108)" />
    <path
       sodipodi:type="star"
       style="opacity:0.96282528000000001;fill:#4d7f4d;fill-opacity:1;stroke:none;stroke-width:1.51100004000000010;stroke-miterlimit:4;stroke-dasharray:1.51099999999999990, 4.53300000000000040;stroke-dashoffset:0"
       id="path2997"
       sodipodi:sides="10"
       sodipodi:cx="451.42856"
       sodipodi:cy="475.21933"
       sodipodi:r1="79.024666"
       sodipodi:r2="39.512333"
       sodipodi:arg1="0.70862627"
       sodipodi:arg2="1.0227855"
       inkscape:flatsided="false"
       inkscape:rounded="0"
       inkscape:randomized="0"
       d="m 511.42856,526.6479 -39.41446,-17.70232 -2.27348,43.14745 -21.4818,-37.48871 -27.20072,33.5707 4.65617,-42.95569 -41.73821,11.17109 29.01565,-32.01506 -40.33313,-15.4955 42.29213,-8.84576 -23.52215,-36.24334 39.41445,17.70232 2.27348,-43.14745 21.4818,37.48871 27.20073,-33.5707 -4.65618,42.95569 41.73822,-11.17109 -29.01565,32.01506 40.33312,15.4955 -42.29212,8.84576 z"
       transform="matrix(0.24384277,0,0,0.24384277,0.57116429,861.58108)" />
    <path
       sodipodi:type="star"
       style="opacity:0.96282528000000001;fill:#4d7f4d;fill-opacity:1;stroke:none;stroke-width:1.51100004000000010;stroke-miterlimit:4;stroke-dasharray:1.51099999999999990, 4.53300000000000040;stroke-dashoffset:0"
       id="path2999"
       sodipodi:sides="10"
       sodipodi:cx="171.42857"
       sodipodi:cy="495.21933"
       sodipodi:r1="74.778587"
       sodipodi:r2="37.389294"
       sodipodi:arg1="0.75837771"
       sodipodi:arg2="1.072537"
       inkscape:flatsided="false"
       inkscape:rounded="0"
       inkscape:randomized="0"
       d="m 225.71429,546.6479 -36.41748,-18.58523 -4.17913,40.67159 -18.53823,-36.44142 -27.28715,30.44758 6.42199,-40.37823 -39.9724,8.59362 28.92922,-28.89193 -37.38956,-16.5428 40.38648,-6.36989 -20.52517,-35.36043 36.41747,18.58523 4.17913,-40.67159 18.53824,36.44142 27.28714,-30.44758 -6.42198,40.37823 39.9724,-8.59362 -28.92922,28.89193 37.38956,16.5428 -40.38648,6.36989 z"
       transform="matrix(0.24384277,0,0,0.24384277,0.57116429,861.58108)" />
    <path
       sodipodi:type="star"
       style="opacity:0.96282528000000001;fill:#4d7f4d;fill-opacity:1;stroke:none;stroke-width:1.51100004000000010;stroke-miterlimit:4;stroke-dasharray:1.51099999999999990, 4.53300000000000040;stroke-dashoffset:0"
       id="path3001"
       sodipodi:sides="10"
       sodipodi:cx="302.85715"
       sodipodi:cy="520.93359"
       sodipodi:r1="58.832172"
       sodipodi:r2="29.416086"
       sodipodi:arg1="1.0636978"
       sodipodi:arg2="1.3778571"
       inkscape:flatsided="false"
       inkscape:rounded="0"
       inkscape:randomized="0"
       d="m 331.42858,572.36216 -22.93106,-22.5583 -12.75456,29.53019 -5.29218,-31.72859 -27.67605,16.39348 14.36813,-28.77963 -32.02625,-3.00497 28.54031,-14.83784 -24.1435,-21.25563 31.81105,4.77151 -7.03875,-31.38736 22.93106,22.55831 12.75455,-29.53019 5.29218,31.72859 27.67606,-16.39348 -14.36814,28.77963 32.02625,3.00497 -28.54031,14.83784 24.14351,21.25563 -31.81106,-4.77152 z"
       transform="matrix(0.24384277,0,0,0.24384277,0.57116429,861.58108)" />
    <path
       sodipodi:type="star"
       style="opacity:0.96282528000000001;fill:#4d7f4d;fill-opacity:1;stroke:none;stroke-width:1.51100004000000010;stroke-miterlimit:4;stroke-dasharray:1.51099999999999990, 4.53300000000000040;stroke-dashoffset:0"
       id="path3003"
       sodipodi:sides="10"
       sodipodi:cx="557.14288"
       sodipodi:cy="389.50504"
       sodipodi:r1="46.070045"
       sodipodi:r2="23.035023"
       sodipodi:arg1="0.51914611"
       sodipodi:arg2="0.83330538"
       inkscape:flatsided="false"
       inkscape:rounded="0"
       inkscape:randomized="0"
       d="m 597.14288,412.36218 -24.51049,-5.80759 3.43608,24.95367 -16.41579,-19.10534 -11.88755,22.20762 -2.05082,-25.1055 -22.67054,10.97901 13.0975,-21.51622 -24.79416,-4.4432 23.24302,-9.70847 -17.44725,-18.16827 24.5105,5.80759 -3.43609,-24.95367 16.4158,19.10534 11.88755,-22.20762 2.05082,25.1055 22.67054,-10.97901 -13.0975,21.51622 24.79416,4.4432 -23.24302,9.70847 z"
       transform="matrix(0.24384277,0,0,0.24384277,0.57116429,861.58108)" />
    <path
       sodipodi:type="star"
       style="opacity:0.96282528000000001;fill:#4d7f4d;fill-opacity:1;stroke:none;stroke-width:1.51100004000000010;stroke-miterlimit:4;stroke-dasharray:1.51099999999999990, 4.53300000000000040;stroke-dashoffset:0"
       id="path3005"
       sodipodi:sides="10"
       sodipodi:cx="611.42859"
       sodipodi:cy="160.93361"
       sodipodi:r1="26.954231"
       sodipodi:r2="13.477116"
       sodipodi:arg1="1.012197"
       sodipodi:arg2="1.3263563"
       inkscape:flatsided="false"
       inkscape:rounded="0"
       inkscape:randomized="0"
       d="m 625.7143,183.79075 -11.02407,-9.78066 -5.13935,13.81227 -3.16973,-14.39251 -12.27647,8.15353 5.89534,-13.50691 -14.72439,-0.61958 12.70858,-7.46213 -11.5481,-9.15604 14.6676,1.43294 -3.96084,-14.19519 11.02408,9.78066 5.13934,-13.81227 3.16974,14.39251 12.27646,-8.15353 -5.89533,13.50691 14.72439,0.61958 -12.70859,7.46213 11.54811,9.15603 -14.6676,-1.43293 z"
       transform="matrix(0.24384277,0,0,0.24384277,0.57116429,861.58108)" />
    <path
       sodipodi:type="star"
       style="opacity:0.96282528000000001;fill:#4d7f4d;fill-opacity:1;stroke:none;stroke-width:1.51100004000000010;stroke-miterlimit:4;stroke-dasharray:1.51099999999999990, 4.53300000000000040;stroke-dashoffset:0"
       id="path3007"
       sodipodi:sides="10"
       sodipodi:cx="268.57144"
       sodipodi:cy="58.076469"
       sodipodi:r1="32.576443"
       sodipodi:r2="16.288219"
       sodipodi:arg1="0.90975316"
       sodipodi:arg2="1.2239124"
       inkscape:flatsided="false"
       inkscape:rounded="0"
       inkscape:randomized="0"
       d="m 288.57144,83.790757 -14.46251,-10.396249 -4.47163,17.240963 -5.58965,-16.911593 -13.75161,11.319875 5.41826,-16.967284 -17.77894,1.07498 14.35658,-10.542048 -15.01532,-9.580521 17.81118,-0.09011 -6.51636,-16.576589 14.46251,10.396249 4.47163,-17.240963 5.58966,16.911593 13.7516,-11.319875 -5.41826,16.967284 17.77894,-1.07498 -14.35658,10.542048 15.01532,9.580521 -17.81118,0.09011 z"
       transform="matrix(0.24384277,0,0,0.24384277,0.57116429,861.58108)" />
    <path
       sodipodi:type="star"
       style="opacity:0.96282528000000001;fill:#4d7f4d;fill-opacity:1;stroke:none;stroke-width:1.51100004000000010;stroke-miterlimit:4;stroke-dasharray:1.51099999999999990, 4.53300000000000040;stroke-dashoffset:0"
       id="path3009"
       sodipodi:sides="10"
       sodipodi:cx="640"
       sodipodi:cy="238.07648"
       sodipodi:r1="51.507874"
       sodipodi:r2="25.753937"
       sodipodi:arg1="0.5880026"
       sodipodi:arg2="0.90216187"
       inkscape:flatsided="false"
       inkscape:rounded="0"
       inkscape:randomized="0"
       d="m 682.85714,266.6479 -26.89189,-8.36311 1.91304,28.09725 -16.84028,-22.57255 -14.96747,23.85561 -0.35625,-28.16005 -26.13092,10.50193 16.26385,-22.99136 -27.31324,-6.86312 26.67171,-9.04075 -18.06283,-21.6067 26.89189,8.36311 -1.91304,-28.09725 16.84028,22.57256 14.96747,-23.85561 0.35625,28.16005 26.13092,-10.50194 -16.26385,22.99136 27.31324,6.86312 -26.67171,9.04076 z"
       transform="matrix(0.24384277,0,0,0.24384277,0.57116429,861.58108)" />
    <path
       sodipodi:type="star"
       style="opacity:0.96282528000000001;fill:#4d7f4d;fill-opacity:1;stroke:none;stroke-width:1.51100004000000010;stroke-miterlimit:4;stroke-dasharray:1.51099999999999990, 4.53300000000000040;stroke-dashoffset:0"
       id="path3011"
       sodipodi:sides="10"
       sodipodi:cx="634.28571"
       sodipodi:cy="469.50504"
       sodipodi:r1="45.175396"
       sodipodi:r2="22.587696"
       sodipodi:arg1="0.96525166"
       sodipodi:arg2="1.2794109"
       inkscape:flatsided="false"
       inkscape:rounded="0"
       inkscape:randomized="0"
       d="m 659.99999,506.64789 -19.2253,-15.5073 -7.51771,23.52813 -6.43864,-23.84603 -19.91144,14.61586 8.80738,-23.07637 -24.69968,0.12082 20.68927,-13.49233 -20.05348,-14.42036 24.66856,1.24532 -7.74753,-23.45345 19.2253,15.5073 7.51771,-23.52813 6.43864,23.84603 19.91144,-14.61586 -8.80738,23.07637 24.69968,-0.12082 -20.68927,13.49233 20.05348,14.42036 -24.66856,-1.24532 z"
       transform="matrix(0.24384277,0,0,0.24384277,0.57116429,861.58108)" />
    <path
       sodipodi:type="star"
       style="opacity:0.96282528000000001;fill:#4d7f4d;fill-opacity:1;stroke:none;stroke-width:1.51100004000000010;stroke-miterlimit:4;stroke-dasharray:1.51099999999999990, 4.53300000000000040;stroke-dashoffset:0"
       id="path2993-2"
       sodipodi:sides="10"
       sodipodi:cx="497.14285"
       sodipodi:cy="138.07648"
       sodipodi:r1="78.45446"
       sodipodi:r2="39.227226"
       sodipodi:arg1="0.99289439"
       sodipodi:arg2="1.3070537"
       inkscape:flatsided="false"
       inkscape:rounded="0"
       inkscape:randomized="0"
       d="m 540,203.79076 -32.63078,-27.84349 -14.1801,40.48398 -10.03286,-41.70575 -35.26782,24.41737 16.39727,-39.63782 -42.88444,-0.97584 36.5642,-22.4296 -34.12066,-25.99631 42.76485,3.34597 -12.32395,-41.08708 32.63078,27.8435 14.18009,-40.483985 10.03286,41.705755 35.26783,-24.41738 -16.39728,39.63783 42.88445,0.97583 -36.56421,22.4296 34.12067,25.99632 -42.76485,-3.34598 z"
       transform="matrix(0.24384277,0,0,0.24384277,34.338802,967.17545)" />
    <path
       sodipodi:type="star"
       style="opacity:0.96282528000000001;fill:#4d7f4d;fill-opacity:1;stroke:none;stroke-width:1.51100004000000010;stroke-miterlimit:4;stroke-dasharray:1.51099999999999990, 4.53300000000000040;stroke-dashoffset:0"
       id="path2993-4"
       sodipodi:sides="10"
       sodipodi:cx="497.14285"
       sodipodi:cy="138.07648"
       sodipodi:r1="78.45446"
       sodipodi:r2="39.227226"
       sodipodi:arg1="0.99289439"
       sodipodi:arg2="1.3070537"
       inkscape:flatsided="false"
       inkscape:rounded="0"
       inkscape:randomized="0"
       d="m 540,203.79076 -32.63078,-27.84349 -14.1801,40.48398 -10.03286,-41.70575 -35.26782,24.41737 16.39727,-39.63782 -42.88444,-0.97584 36.5642,-22.4296 -34.12066,-25.99631 42.76485,3.34597 -12.32395,-41.08708 32.63078,27.8435 14.18009,-40.483985 10.03286,41.705755 35.26783,-24.41738 -16.39728,39.63783 42.88445,0.97583 -36.56421,22.4296 34.12067,25.99632 -42.76485,-3.34598 z"
       transform="matrix(0.24384277,0,0,0.24384277,-63.645995,986.36835)" />
    <path
       sodipodi:type="star"
       style="opacity:0.96282528000000001;fill:#4d7f4d;fill-opacity:1;stroke:none;stroke-width:1.51100004000000010;stroke-miterlimit:4;stroke-dasharray:1.51099999999999990, 4.53300000000000040;stroke-dashoffset:0"
       id="path3003-6"
       sodipodi:sides="10"
       sodipodi:cx="557.14288"
       sodipodi:cy="389.50504"
       sodipodi:r1="46.070045"
       sodipodi:r2="23.035023"
       sodipodi:arg1="0.51914611"
       sodipodi:arg2="0.83330538"
       inkscape:flatsided="false"
       inkscape:rounded="0"
       inkscape:randomized="0"
       d="m 597.14288,412.36218 -24.51049,-5.80759 3.43608,24.95367 -16.41579,-19.10534 -11.88755,22.20762 -2.05082,-25.1055 -22.67054,10.97901 13.0975,-21.51622 -24.79416,-4.4432 23.24302,-9.70847 -17.44725,-18.16827 24.5105,5.80759 -3.43609,-24.95367 16.4158,19.10534 11.88755,-22.20762 2.05082,25.1055 22.67054,-10.97901 -13.0975,21.51622 24.79416,4.4432 -23.24302,9.70847 z"
       transform="matrix(0.24384277,0,0,0.24384277,-7.0608142,919.50348)" />
    <path
       sodipodi:type="star"
       style="opacity:0.96282528000000001;fill:#4d7f4d;fill-opacity:1;stroke:none;stroke-width:1.51100004000000010;stroke-miterlimit:4;stroke-dasharray:1.51099999999999990, 4.53300000000000040;stroke-dashoffset:0"
       id="path3003-3"
       sodipodi:sides="10"
       sodipodi:cx="557.14288"
       sodipodi:cy="389.50504"
       sodipodi:r1="46.070045"
       sodipodi:r2="23.035023"
       sodipodi:arg1="0.51914611"
       sodipodi:arg2="0.83330538"
       inkscape:flatsided="false"
       inkscape:rounded="0"
       inkscape:randomized="0"
       d="m 597.14288,412.36218 -24.51049,-5.80759 3.43608,24.95367 -16.41579,-19.10534 -11.88755,22.20762 -2.05082,-25.1055 -22.67054,10.97901 13.0975,-21.51622 -24.79416,-4.4432 23.24302,-9.70847 -17.44725,-18.16827 24.5105,5.80759 -3.43609,-24.95367 16.4158,19.10534 11.88755,-22.20762 2.05082,25.1055 22.67054,-10.97901 -13.0975,21.51622 24.79416,4.4432 -23.24302,9.70847 z"
       transform="matrix(0.24384277,0,0,0.24384277,-116.15729,914.45271)" />
    <path
       sodipodi:type="star"
       style="opacity:0.96282528000000001;fill:#4d7f4d;fill-opacity:1;stroke:none;stroke-width:1.51100004000000010;stroke-miterlimit:4;stroke-dasharray:1.51099999999999990, 4.53300000000000040;stroke-dashoffset:0"
       id="path3003-8"
       sodipodi:sides="10"
       sodipodi:cx="557.14288"
       sodipodi:cy="389.50504"
       sodipodi:r1="46.070045"
       sodipodi:r2="23.035023"
       sodipodi:arg1="0.51914611"
       sodipodi:arg2="0.83330538"
       inkscape:flatsided="false"
       inkscape:rounded="0"
       inkscape:randomized="0"
       d="m 597.14288,412.36218 -24.51049,-5.80759 3.43608,24.95367 -16.41579,-19.10534 -11.88755,22.20762 -2.05082,-25.1055 -22.67054,10.97901 13.0975,-21.51622 -24.79416,-4.4432 23.24302,-9.70847 -17.44725,-18.16827 24.5105,5.80759 -3.43609,-24.95367 16.4158,19.10534 11.88755,-22.20762 2.05082,25.1055 22.67054,-10.97901 -13.0975,21.51622 24.79416,4.4432 -23.24302,9.70847 z"
       transform="matrix(0.24384277,0,0,0.24384277,54.053415,846.77249)" />
    <path
       sodipodi:type="star"
       style="opacity:0.96282528000000001;fill:#4d7f4d;fill-opacity:1;stroke:none;stroke-width:1.51100004000000010;stroke-miterlimit:4;stroke-dasharray:1.51099999999999990, 4.53300000000000040;stroke-dashoffset:0"
       id="path2991-1"
       sodipodi:sides="10"
       sodipodi:cx="314.28571"
       sodipodi:cy="366.64789"
       sodipodi:r1="83.053955"
       sodipodi:r2="41.526974"
       sodipodi:arg1="0.7123576"
       sodipodi:arg2="1.0265169"
       inkscape:flatsided="false"
       inkscape:rounded="0"
       inkscape:randomized="0"
       d="m 377.14285,420.9336 -41.3544,-18.75936 -2.55859,45.33822 -22.42994,-39.48416 -28.71907,35.17549 5.062,-45.12733 -43.90985,11.57692 30.62042,-33.53342 -42.32856,-16.44364 44.4829,-9.13086 -24.5792,-38.18329 41.3544,18.75937 2.55859,-45.33822 22.42994,39.48415 28.71907,-35.17549 -5.062,45.12734 43.90985,-11.57692 -30.62042,33.53341 42.32856,16.44364 -44.4829,9.13087 z"
       transform="matrix(0.24384277,0,0,0.24384277,102.66578,785.1709)" />
    <path
       sodipodi:type="star"
       style="opacity:0.96282528000000001;fill:#4d7f4d;fill-opacity:1;stroke:none;stroke-width:1.51100004000000010;stroke-miterlimit:4;stroke-dasharray:1.51099999999999990, 4.53300000000000040;stroke-dashoffset:0"
       id="path2985-5"
       sodipodi:sides="10"
       sodipodi:cx="128.57143"
       sodipodi:cy="146.6479"
       sodipodi:r1="93.284729"
       sodipodi:r2="46.642365"
       sodipodi:arg1="0.69865982"
       sodipodi:arg2="1.0128191"
       inkscape:flatsided="false"
       inkscape:rounded="0"
       inkscape:randomized="0"
       d="m 200,206.6479 -46.73278,-20.43198 -2.17598,50.95766 -25.79799,-43.99866 -31.712571,39.94661 4.990747,-50.75934 -49.136032,13.6773 33.873192,-38.13168 -47.791202,-17.81626 49.817229,-10.93902 -28.191758,-42.504626 46.732775,20.431986 2.17598,-50.957666 25.798,43.998656 31.71256,-39.946604 -4.99074,50.759344 49.13603,-13.677305 -33.87319,38.131685 47.7912,17.81626 -49.81723,10.93902 z"
       transform="matrix(0.24384277,0,0,0.24384277,65.118356,988.82395)" />
    <path
       sodipodi:type="star"
       style="opacity:0.96282528000000001;fill:#4d7f4d;fill-opacity:1;stroke:none;stroke-width:1.51100004000000010;stroke-miterlimit:4;stroke-dasharray:1.51099999999999990, 4.53300000000000040;stroke-dashoffset:0"
       id="path2997-4"
       sodipodi:sides="10"
       sodipodi:cx="451.42856"
       sodipodi:cy="475.21933"
       sodipodi:r1="79.024666"
       sodipodi:r2="39.512333"
       sodipodi:arg1="0.70862627"
       sodipodi:arg2="1.0227855"
       inkscape:flatsided="false"
       inkscape:rounded="0"
       inkscape:randomized="0"
       d="m 511.42856,526.6479 -39.41446,-17.70232 -2.27348,43.14745 -21.4818,-37.48871 -27.20072,33.5707 4.65617,-42.95569 -41.73821,11.17109 29.01565,-32.01506 -40.33313,-15.4955 42.29213,-8.84576 -23.52215,-36.24334 39.41445,17.70232 2.27348,-43.14745 21.4818,37.48871 27.20073,-33.5707 -4.65618,42.95569 41.73822,-11.17109 -29.01565,32.01506 40.33312,15.4955 -42.29212,8.84576 z"
       transform="matrix(0.24384277,0,0,0.24384277,67.709258,852.64072)" />
    <path
       sodipodi:type="star"
       style="opacity:0.96282528000000001;fill:#4d7f4d;fill-opacity:1;stroke:none;stroke-width:1.51100004000000010;stroke-miterlimit:4;stroke-dasharray:1.51099999999999990, 4.53300000000000040;stroke-dashoffset:0"
       id="path2997-45"
       sodipodi:sides="10"
       sodipodi:cx="451.42856"
       sodipodi:cy="475.21933"
       sodipodi:r1="79.024666"
       sodipodi:r2="39.512333"
       sodipodi:arg1="0.70862627"
       sodipodi:arg2="1.0227855"
       inkscape:flatsided="false"
       inkscape:rounded="0"
       inkscape:randomized="0"
       d="m 511.42856,526.6479 -39.41446,-17.70232 -2.27348,43.14745 -21.4818,-37.48871 -27.20072,33.5707 4.65617,-42.95569 -41.73821,11.17109 29.01565,-32.01506 -40.33313,-15.4955 42.29213,-8.84576 -23.52215,-36.24334 39.41445,17.70232 2.27348,-43.14745 21.4818,37.48871 27.20073,-33.5707 -4.65618,42.95569 41.73822,-11.17109 -29.01565,32.01506 40.33312,15.4955 -42.29212,8.84576 z"
       transform="matrix(0.24384277,0,0,0.24384277,-13.102946,758.19146)" />
    <path
       sodipodi:type="star"
       style="opacity:0.96282528000000001;fill:#4d7f4d;fill-opacity:1;stroke:none;stroke-width:1.51100004000000010;stroke-miterlimit:4;stroke-dasharray:1.51099999999999990, 4.53300000000000040;stroke-dashoffset:0"
       id="path2997-45-8"
       sodipodi:sides="10"
       sodipodi:cx="451.42856"
       sodipodi:cy="475.21933"
       sodipodi:r1="79.024666"
       sodipodi:r2="39.512333"
       sodipodi:arg1="0.70862627"
       sodipodi:arg2="1.0227855"
       inkscape:flatsided="false"
       inkscape:rounded="0"
       inkscape:randomized="0"
       d="m 511.42856,526.6479 -39.41446,-17.70232 -2.27348,43.14745 -21.4818,-37.48871 -27.20072,33.5707 4.65617,-42.95569 -41.73821,11.17109 29.01565,-32.01506 -40.33313,-15.4955 42.29213,-8.84576 -23.52215,-36.24334 39.41445,17.70232 2.27348,-43.14745 21.4818,37.48871 27.20073,-33.5707 -4.65618,42.95569 41.73822,-11.17109 -29.01565,32.01506 40.33312,15.4955 -42.29212,8.84576 z"
       transform="matrix(0.24384277,0,0,0.24384277,67.709257,917.79555)" />
    <path
       sodipodi:type="star"
       style="opacity:0.96282528000000001;fill:#4d7f4d;fill-opacity:1;stroke:none;stroke-width:1.51100004000000010;stroke-miterlimit:4;stroke-dasharray:1.51099999999999990, 4.53300000000000040;stroke-dashoffset:0"
       id="path3003-7"
       sodipodi:sides="10"
       sodipodi:cx="557.14288"
       sodipodi:cy="389.50504"
       sodipodi:r1="46.070045"
       sodipodi:r2="23.035023"
       sodipodi:arg1="0.51914611"
       sodipodi:arg2="0.83330538"
       inkscape:flatsided="false"
       inkscape:rounded="0"
       inkscape:randomized="0"
       d="m 597.14288,412.36218 -24.51049,-5.80759 3.43608,24.95367 -16.41579,-19.10534 -11.88755,22.20762 -2.05082,-25.1055 -22.67054,10.97901 13.0975,-21.51622 -24.79416,-4.4432 23.24302,-9.70847 -17.44725,-18.16827 24.5105,5.80759 -3.43609,-24.95367 16.4158,19.10534 11.88755,-22.20762 2.05082,25.1055 22.67054,-10.97901 -13.0975,21.51622 24.79416,4.4432 -23.24302,9.70847 z"
       transform="matrix(0.24384277,0,0,0.24384277,6.0711692,941.72683)" />
    <path
       sodipodi:type="star"
       style="opacity:0.96282528000000001;fill:#4d7f4d;fill-opacity:1;stroke:none;stroke-width:1.51100004000000010;stroke-miterlimit:4;stroke-dasharray:1.51099999999999990, 4.53300000000000040;stroke-dashoffset:0"
       id="path3003-5"
       sodipodi:sides="10"
       sodipodi:cx="557.14288"
       sodipodi:cy="389.50504"
       sodipodi:r1="46.070045"
       sodipodi:r2="23.035023"
       sodipodi:arg1="0.51914611"
       sodipodi:arg2="0.83330538"
       inkscape:flatsided="false"
       inkscape:rounded="0"
       inkscape:randomized="0"
       d="m 597.14288,412.36218 -24.51049,-5.80759 3.43608,24.95367 -16.41579,-19.10534 -11.88755,22.20762 -2.05082,-25.1055 -22.67054,10.97901 13.0975,-21.51622 -24.79416,-4.4432 23.24302,-9.70847 -17.44725,-18.16827 24.5105,5.80759 -3.43609,-24.95367 16.4158,19.10534 11.88755,-22.20762 2.05082,25.1055 22.67054,-10.97901 -13.0975,21.51622 24.79416,4.4432 -23.24302,9.70847 z"
       transform="matrix(0.24384277,0,0,0.24384277,-105.04561,940.2116)" />
    <path
       sodipodi:type="star"
       style="opacity:0.96282528000000001;fill:#4d7f4d;fill-opacity:1;stroke:none;stroke-width:1.51100004000000010;stroke-miterlimit:4;stroke-dasharray:1.51099999999999990, 4.53300000000000040;stroke-dashoffset:0"
       id="path3184"
       sodipodi:sides="5"
       sodipodi:cx="174.25131"
       sodipodi:cy="47.972042"
       sodipodi:r1="8.2838669"
       sodipodi:r2="4.1419334"
       sodipodi:arg1="0.65569563"
       sodipodi:arg2="1.2840142"
       inkscape:flatsided="false"
       inkscape:rounded="0"
       inkscape:randomized="0"
       d="m 180.8173,53.022805 -5.39437,-1.07799 -3.94618,3.832628 -0.64172,-5.463472 -4.86448,-2.568689 4.99777,-2.298621 0.93976,-5.420165 3.73051,4.042846 5.44529,-0.781157 -2.69219,4.797237 z"
       transform="translate(0,852.36218)"
       inkscape:transform-center-x="0.72409941"
       inkscape:transform-center-y="-0.070072658" />
    <path
       sodipodi:type="star"
       style="opacity:0.96282528000000001;fill:#4d7f4d;fill-opacity:1;stroke:none;stroke-width:1.51100004000000010;stroke-miterlimit:4;stroke-dasharray:1.51099999999999990, 4.53300000000000040;stroke-dashoffset:0"
       id="path3186"
       sodipodi:sides="5"
       sodipodi:cx="156.06857"
       sodipodi:cy="85.85276"
       sodipodi:r1="11.52858"
       sodipodi:r2="5.7642903"
       sodipodi:arg1="1.0679531"
       sodipodi:arg2="1.6962716"
       inkscape:flatsided="false"
       inkscape:rounded="0"
       inkscape:randomized="0"
       d="m 161.62441,95.954285 -6.27722,-4.382551 -7.16889,2.686486 2.22829,-7.324272 -4.77031,-5.987853 7.65437,-0.144097 4.22068,-6.387183 2.50238,7.235215 7.37883,2.040356 -6.10782,4.615707 z"
       transform="translate(3.0304576,858.92817)"
       inkscape:transform-center-x="-0.44583721"
       inkscape:transform-center-y="-0.66821027" />
    <path
       sodipodi:type="star"
       style="opacity:0.96282528000000001;fill:#4d7f4d;fill-opacity:1;stroke:none;stroke-width:1.51100004000000010;stroke-miterlimit:4;stroke-dasharray:1.51099999999999990, 4.53300000000000040;stroke-dashoffset:0"
       id="path3188"
       sodipodi:sides="5"
       sodipodi:cx="120.71323"
       sodipodi:cy="13.121779"
       sodipodi:r1="20.360275"
       sodipodi:r2="10.180138"
       sodipodi:arg1="0.51914611"
       sodipodi:arg2="1.1474646"
       inkscape:flatsided="false"
       inkscape:rounded="0"
       inkscape:randomized="0"
       d="m 138.3909,23.223305 -13.49567,-0.820036 -8.32642,10.652516 -3.39049,-13.088545 -12.70416,-4.627093 11.40023,-7.2691298 0.47483,-13.5122168 10.43622,8.5959761 12.99761,-3.72391677 -4.95029,12.58173527 z"
       transform="translate(23.738585,858.92817)"
       inkscape:transform-center-x="1.2806966"
       inkscape:transform-center-y="0.68551332" />
    <path
       sodipodi:type="star"
       style="opacity:0.96282528000000001;fill:#4d7f4d;fill-opacity:1;stroke:none;stroke-width:1.51100004000000010;stroke-miterlimit:4;stroke-dasharray:1.51099999999999990, 4.53300000000000040;stroke-dashoffset:0"
       id="path3192"
       sodipodi:sides="5"
       sodipodi:cx="22.678572"
       sodipodi:cy="8.5714283"
       sodipodi:r1="8.6252031"
       sodipodi:r2="4.312602"
       sodipodi:arg1="1.0978897"
       sodipodi:arg2="1.7262083"
       inkscape:flatsided="false"
       inkscape:rounded="0"
       inkscape:randomized="0"
       d="m 26.607143,16.249999 -4.596107,-3.417945 -5.421224,1.848477 1.830384,-5.4273606 -3.433256,-4.5846803 5.727346,0.063652 3.299355,-4.68196485 1.709311,5.46669955 5.47237,1.6910668 -4.670934,3.3149543 z"
       transform="translate(0,852.36218)"
       inkscape:transform-center-x="-0.41255932"
       inkscape:transform-center-y="-0.42133985" />
    <path
       sodipodi:type="star"
       style="opacity:0.96282528000000001;fill:#4d7f4d;fill-opacity:1;stroke:none;stroke-width:1.51100004000000010;stroke-miterlimit:4;stroke-dasharray:1.51099999999999990, 4.53300000000000040;stroke-dashoffset:0"
       id="path3194"
       sodipodi:sides="5"
       sodipodi:cx="14.107143"
       sodipodi:cy="70.535713"
       sodipodi:r1="12.531847"
       sodipodi:r2="6.265924"
       sodipodi:arg1="0.99860268"
       sodipodi:arg2="1.6269212"
       inkscape:flatsided="false"
       inkscape:rounded="0"
       inkscape:randomized="0"
       d="m 20.892858,81.071427 -7.137204,-4.279656 -7.5716691,3.453255 1.8646778,-8.110371 -5.6240148,-6.133971 8.2896381,-0.732828 4.095837,-7.244257 3.2586,7.657458 8.155381,1.656773 -6.275712,5.465398 z"
       transform="translate(0,852.36218)"
       inkscape:transform-center-x="-0.21723255"
       inkscape:transform-center-y="-0.9882002" />
    <path
       sodipodi:type="star"
       style="opacity:0.96282528000000001;fill:#4d7f4d;fill-opacity:1;stroke:none;stroke-width:1.51100004000000010;stroke-miterlimit:4;stroke-dasharray:1.51099999999999990, 4.53300000000000040;stroke-dashoffset:0"
       id="path3196"
       sodipodi:sides="5"
       sodipodi:cx="7.8571429"
       sodipodi:cy="124.82143"
       sodipodi:r1="9.1141434"
       sodipodi:r2="4.5570717"
       sodipodi:arg1="0.96649082"
       sodipodi:arg2="1.5948094"
       inkscape:flatsided="false"
       inkscape:rounded="0"
       inkscape:randomized="0"
       d="m 13.035715,132.32143 -5.2879909,-2.94425 -5.4232387,2.68699 1.166062,-5.939 -4.23134654,-4.32748 6.00865644,-0.72626 2.8081227,-5.36152 2.547492,5.49015 5.966862,1.01388 -4.43422,4.11936 z"
       transform="translate(0,852.36218)"
       inkscape:transform-center-x="-0.067624383"
       inkscape:transform-center-y="-0.80575769" />
    <rect
       style="opacity:0.96282528;fill:#d5e6d5;fill-opacity:1;stroke:#000000;stroke-width:1.51100004;stroke-miterlimit:4;stroke-dasharray:1.511, 4.533;stroke-dashoffset:0"
       id="rect3204"
       width="0.71428573"
       height="0.53571427"
       x="108.39286"
       y="237.5"
       transform="translate(0,852.36218)" />
  </g>
  <g
     inkscape:groupmode="layer"
     id="layer2"
     inkscape:label="Ebene" />
</svg>
